<svg width="31" height="31" viewBox="0 0 31 31" fill="none" xmlns="http://www.w3.org/2000/svg">
<g clip-path="url(#clip0_238_611)">
<path d="M-0.000191878 30.2736V29.8498C0.0551707 29.7111 0.111292 29.5731 0.167413 29.4343C0.874233 27.6693 1.57726 25.9027 2.29091 24.1407C2.38571 23.9064 2.38343 23.729 2.24389 23.5053C1.26968 21.9243 0.597961 20.1761 0.262969 18.3496C0.137076 17.687 0.103707 17.0137 -0.00170898 16.3495V14.5928C0.0224387 14.4868 0.0406683 14.3794 0.0528953 14.2713C0.0983601 13.5977 0.195467 12.9285 0.343359 12.2697C1.1647 8.55082 3.07357 5.49912 6.10258 3.20257C9.87406 0.347998 14.1211 -0.600494 18.7563 0.365436C22.4634 1.13879 25.478 3.08126 27.7812 6.07762C30.2748 9.31356 31.3092 13.0006 30.9194 17.0531C30.6039 20.3391 29.3268 23.2399 27.1381 25.7169C24.738 28.4318 21.7497 30.1147 18.1731 30.7657C17.5884 30.8719 16.9938 30.8946 16.4099 31H14.6519C14.2121 30.9492 13.7714 30.9098 13.3338 30.8484C11.2415 30.5598 9.23266 29.8366 7.43659 28.7254C7.36547 28.6737 7.28164 28.6422 7.19403 28.6343C7.10641 28.6264 7.0183 28.6425 6.93909 28.6807C5.72566 29.1781 4.51224 29.6572 3.29881 30.1463C2.60109 30.4276 1.90716 30.7164 1.21172 31.0023H0.727105C0.382037 30.8597 0.157553 30.6004 -0.000191878 30.2736ZM2.71106 28.291C3.96695 27.7853 5.17204 27.3516 6.33237 26.8193C7.09077 26.4713 7.67852 26.5661 8.38003 27.0059C11.4159 28.9226 14.7278 29.4813 18.2414 28.7709C21.3038 28.1538 23.8535 26.6207 25.8602 24.2301C28.3272 21.2891 29.3647 17.875 28.9855 14.0621C28.6981 11.2128 27.6037 8.67289 25.6676 6.55603C22.1858 2.75145 17.8622 1.28815 12.7908 2.23437C9.68825 2.81286 7.11579 4.39596 5.10454 6.82367C2.53359 9.92542 1.5492 13.5079 2.08993 17.4929C2.33941 19.4002 3.03013 21.223 4.10725 22.8169C4.47204 23.3567 4.52892 23.8435 4.265 24.4493C3.71972 25.6904 3.24269 26.9626 2.71106 28.291Z" fill="white"/>
</g>
<defs>
<clipPath id="clip0_238_611">
<rect width="31" height="31" fill="white"/>
</clipPath>
</defs>
</svg>
